# xmcd
#
# Track frame offsets:
#	150
#	17274
#	35550
#	54020
#	78023
#	93088
#	106507
#	125149
#	149976
#	169347
#	183422
#	204123
#	219736
#	236517
#
# Disc length: 3421 seconds
#
# Revision: 0
# Processed by: cddbd v1.5.2PL0 Copyright (c) Steve Scherf et al.
# Submitted via: EasyCDDAExtractor 2010.6.0.0
#
DISCID=b10d5b0e
DTITLE=The Company
DYEAR=1900
DGENRE=
TTITLE0=Minsan isang araw
TTITLE1=Baka ikaw
TTITLE2=Pag nagkataon
TTITLE3=I've been here before
TTITLE4=Kung kailan pa
TTITLE5=Gusto ko ng capella
TTITLE6=Sabi ko na nga
TTITLE7=Between the lines
TTITLE8=Ikaw pa ba yan
TTITLE9=Alam mo ba?
TTITLE10=You made me the best
TTITLE11=A little love goes a long way
TTITLE12=Minsan isang araw - acoustic
TTITLE13=You made me the best - acoust
EXTD=
EXTT0=
EXTT1=
EXTT2=
EXTT3=
EXTT4=
EXTT5=
EXTT6=
EXTT7=
EXTT8=
EXTT9=
EXTT10=
EXTT11=
EXTT12=
EXTT13=
PLAYORDER=
